<svg width="720" height="306.383" style="position:relative"><path stroke="#e9edee" stroke-width="3" d="M595.018 25v42.73M595.018 67.73v42.731M595.018 110.461v42.73M595.018 153.191v42.731M595.018 195.922v42.73M595.018 238.652v42.731M595.018 25h-42.731M595.018 67.73h-42.731M595.018 110.461h-42.731M595.018 153.191h-42.731M595.018 195.922h-42.731M595.018 238.652h-42.731M595.018 281.383h-42.731M552.287 25v42.73M552.287 67.73v42.731M552.287 110.461v42.73M552.287 153.191v42.731M552.287 195.922v42.73M552.287 238.652v42.731M552.287 25h-42.73M552.287 67.73h-42.73M552.287 110.461h-42.73M552.287 153.191h-42.73M552.287 195.922h-42.73M552.287 238.652h-42.73M552.287 281.383h-42.73M509.557 25v42.73M509.557 67.73v42.731M509.557 110.461v42.73M509.557 153.191v42.731M509.557 195.922v42.73M509.557 238.652v42.731M509.557 25h-42.731M509.557 67.73h-42.731M509.557 110.461h-42.731M509.557 153.191h-42.731M509.557 195.922h-42.731M509.557 238.652h-42.731M509.557 281.383h-42.731M466.826 25v42.73M466.826 67.73v42.731M466.826 110.461v42.73M466.826 153.191v42.731M466.826 195.922v42.73M466.826 238.652v42.731M466.826 25h-42.73M466.826 67.73h-42.73M466.826 110.461h-42.73M466.826 153.191h-42.73M466.826 195.922h-42.73M466.826 238.652h-42.73M424.096 25v42.73M424.096 67.73v42.731M424.096 110.461v42.73M424.096 153.191v42.731M424.096 195.922v42.73M424.096 238.652v42.731M424.096 25h-42.731M424.096 67.73h-42.731M424.096 110.461h-42.731M424.096 153.191h-42.731M424.096 195.922h-42.731M424.096 238.652h-42.731M424.096 281.383h-42.731M381.365 25v42.73M381.365 67.73v42.731M381.365 110.461v42.73M381.365 153.191v42.731M381.365 195.922v42.73M381.365 238.652v42.731M381.365 67.73h-42.73M381.365 110.461h-42.73M381.365 153.191h-42.73M381.365 195.922h-42.73M381.365 238.652h-42.73M338.635 110.461v42.73M338.635 153.191v42.731M338.635 195.922v42.73M338.635 67.73h-42.731M338.635 110.461h-42.731M338.635 153.191h-42.731M338.635 195.922h-42.731M338.635 238.652h-42.731M295.904 25v42.73M295.904 67.73v42.731M295.904 110.461v42.73M295.904 153.191v42.731M295.904 195.922v42.73M295.904 238.652v42.731M295.904 25h-42.73M295.904 67.73h-42.73M295.904 110.461h-42.73M295.904 153.191h-42.73M295.904 195.922h-42.73M295.904 238.652h-42.73M295.904 281.383h-42.73M253.174 25v42.73M253.174 67.73v42.731M253.174 110.461v42.73M253.174 153.191v42.731M253.174 195.922v42.73M253.174 238.652v42.731M253.174 25h-42.731M253.174 67.73h-42.731M253.174 110.461h-42.731M253.174 153.191h-42.731M253.174 195.922h-42.731M253.174 238.652h-42.731M253.174 281.383h-42.731M210.443 25v42.73M210.443 67.73v42.731M210.443 110.461v42.73M210.443 195.922v42.73M210.443 238.652v42.731M210.443 25h-42.73M210.443 67.73h-42.73M210.443 110.461h-42.73M210.443 153.191h-42.73M210.443 195.922h-42.73M210.443 238.652h-42.73M210.443 281.383h-42.73M167.713 25v42.73M167.713 67.73v42.731M167.713 110.461v42.73M167.713 153.191v42.731M167.713 195.922v42.73M167.713 238.652v42.731M167.713 25h-42.731M167.713 67.73h-42.731M167.713 110.461h-42.731M167.713 153.191h-42.731M167.713 195.922h-42.731M167.713 238.652h-42.731M167.713 281.383h-42.731M124.982 25v42.73M124.982 67.73v42.731M124.982 110.461v42.73M124.982 153.191v42.731M124.982 195.922v42.73M124.982 238.652v42.731"/><circle cx="595.018" cy="25" r="6" fill="#00b5ad" opacity=".8"/><circle cx="595.018" cy="67.73" r="6" fill="#00b5ad" opacity=".8"/><circle cx="595.018" cy="110.461" r="6" fill="#00b5ad" opacity=".8"/><circle cx="595.018" cy="153.191" r="6" fill="#00b5ad" opacity=".8"/><circle cx="595.018" cy="195.922" r="6" fill="#00b5ad" opacity=".8"/><circle cx="595.018" cy="238.652" r="6" fill="#00b5ad" opacity=".8"/><circle cx="595.018" cy="281.383" r="6" fill="#00b5ad" opacity=".8"/><circle cx="552.287" cy="25" r="6" fill="#00b5ad" opacity=".8"/><circle cx="552.287" cy="67.73" r="6" fill="#00b5ad" opacity=".8"/><circle cx="552.287" cy="110.461" r="6" fill="#00b5ad" opacity=".8"/><circle cx="552.287" cy="153.191" r="6" fill="#00b5ad" opacity=".8"/><circle cx="552.287" cy="195.922" r="6" fill="#00b5ad" opacity=".8"/><circle cx="552.287" cy="238.652" r="6" fill="#00b5ad" opacity=".8"/><circle cx="552.287" cy="281.383" r="6" fill="#00b5ad" opacity=".8"/><circle cx="509.557" cy="25" r="6" fill="#00b5ad" opacity=".8"/><circle cx="509.557" cy="67.73" r="6" fill="#00b5ad" opacity=".8"/><circle cx="509.557" cy="110.461" r="6" fill="#00b5ad" opacity=".8"/><circle cx="509.557" cy="153.191" r="6" fill="#00b5ad" opacity=".8"/><circle cx="509.557" cy="195.922" r="6" fill="#00b5ad" opacity=".8"/><circle cx="509.557" cy="238.652" r="6" fill="#00b5ad" opacity=".8"/><circle cx="509.557" cy="281.383" r="6" fill="#00b5ad" opacity=".8"/><circle cx="466.826" cy="25" r="6" fill="#00b5ad" opacity=".8"/><circle cx="466.826" cy="67.73" r="6" fill="#00b5ad" opacity=".8"/><circle cx="466.826" cy="110.461" r="6" fill="#00b5ad" opacity=".8"/><circle cx="466.826" cy="153.191" r="6" fill="#00b5ad" opacity=".8"/><circle cx="466.826" cy="195.922" r="6" fill="#00b5ad" opacity=".8"/><circle cx="466.826" cy="238.652" r="6" fill="#00b5ad" opacity=".8"/><circle cx="466.826" cy="281.383" r="6" fill="#00b5ad" opacity=".8"/><circle cx="424.096" cy="25" r="6" fill="#00b5ad" opacity=".8"/><circle cx="424.096" cy="67.73" r="6" fill="#00b5ad" opacity=".8"/><circle cx="424.096" cy="110.461" r="6" fill="#00b5ad" opacity=".8"/><circle cx="424.096" cy="153.191" r="6" fill="#00b5ad" opacity=".8"/><circle cx="424.096" cy="195.922" r="6" fill="#00b5ad" opacity=".8"/><circle cx="424.096" cy="238.652" r="6" fill="#00b5ad" opacity=".8"/><circle cx="424.096" cy="281.383" r="6" fill="#00b5ad" opacity=".8"/><circle cx="381.365" cy="25" r="6" fill="#00b5ad" opacity=".8"/><circle cx="381.365" cy="67.73" r="6" fill="#00b5ad" opacity=".8"/><circle cx="381.365" cy="110.461" r="6" fill="#00b5ad" opacity=".8"/><circle cx="381.365" cy="153.191" r="6" fill="#00b5ad" opacity=".8"/><circle cx="381.365" cy="195.922" r="6" fill="#00b5ad" opacity=".8"/><circle cx="381.365" cy="238.652" r="6" fill="#00b5ad" opacity=".8"/><circle cx="381.365" cy="281.383" r="6" fill="#00b5ad" opacity=".8"/><circle cx="338.635" cy="67.73" r="6" fill="#00b5ad" opacity=".8"/><circle cx="338.635" cy="110.461" r="6" fill="#00b5ad" opacity=".8"/><circle cx="338.635" cy="153.191" r="6" fill="#00b5ad" opacity=".8"/><circle cx="338.635" cy="195.922" r="6" fill="#00b5ad" opacity=".8"/><circle cx="338.635" cy="238.652" r="6" fill="#00b5ad" opacity=".8"/><circle cx="295.904" cy="25" r="6" fill="#00b5ad" opacity=".8"/><circle cx="295.904" cy="67.73" r="6" fill="#00b5ad" opacity=".8"/><circle cx="295.904" cy="110.461" r="6" fill="#00b5ad" opacity=".8"/><circle cx="295.904" cy="153.191" r="6" fill="#00b5ad" opacity=".8"/><circle cx="295.904" cy="195.922" r="6" fill="#00b5ad" opacity=".8"/><circle cx="295.904" cy="238.652" r="6" fill="#00b5ad" opacity=".8"/><circle cx="295.904" cy="281.383" r="6" fill="#00b5ad" opacity=".8"/><circle cx="253.174" cy="25" r="6" fill="#00b5ad" opacity=".8"/><circle cx="253.174" cy="67.73" r="6" fill="#00b5ad" opacity=".8"/><circle cx="253.174" cy="110.461" r="6" fill="#00b5ad" opacity=".8"/><circle cx="253.174" cy="153.191" r="6" fill="#00b5ad" opacity=".8"/><circle cx="253.174" cy="195.922" r="6" fill="#00b5ad" opacity=".8"/><circle cx="253.174" cy="238.652" r="6" fill="#00b5ad" opacity=".8"/><circle cx="253.174" cy="281.383" r="6" fill="#00b5ad" opacity=".8"/><circle cx="210.443" cy="25" r="6" fill="#00b5ad" opacity=".8"/><circle cx="210.443" cy="67.73" r="6" fill="#00b5ad" opacity=".8"/><circle cx="210.443" cy="110.461" r="6" fill="#00b5ad" opacity=".8"/><circle cx="210.443" cy="153.191" r="6" fill="#00b5ad" opacity=".8"/><circle cx="210.443" cy="195.922" r="6" fill="#00b5ad" opacity=".8"/><circle cx="210.443" cy="238.652" r="6" fill="#00b5ad" opacity=".8"/><circle cx="210.443" cy="281.383" r="6" fill="#00b5ad" opacity=".8"/><circle cx="167.713" cy="25" r="6" fill="#00b5ad" opacity=".8"/><circle cx="167.713" cy="67.73" r="6" fill="#00b5ad" opacity=".8"/><circle cx="167.713" cy="110.461" r="6" fill="#00b5ad" opacity=".8"/><circle cx="167.713" cy="153.191" r="6" fill="#00b5ad" opacity=".8"/><circle cx="167.713" cy="195.922" r="6" fill="#00b5ad" opacity=".8"/><circle cx="167.713" cy="238.652" r="6" fill="#00b5ad" opacity=".8"/><circle cx="167.713" cy="281.383" r="6" fill="#00b5ad" opacity=".8"/><circle cx="124.982" cy="25" r="6" fill="#00b5ad" opacity=".8"/><circle cx="124.982" cy="67.73" r="6" fill="#00b5ad" opacity=".8"/><circle cx="124.982" cy="110.461" r="6" fill="#00b5ad" opacity=".8"/><circle cx="124.982" cy="153.191" r="6" fill="#00b5ad" opacity=".8"/><circle cx="124.982" cy="195.922" r="6" fill="#00b5ad" opacity=".8"/><circle cx="124.982" cy="238.652" r="6" fill="#00b5ad" opacity=".8"/><circle cx="124.982" cy="281.383" r="6" fill="#00b5ad" opacity=".8"/></svg>